<svg xmlns="http://www.w3.org/2000/svg" version="1.1" xmlns:xlink="http://www.w3.org/1999/xlink" xmlns:svgjs="http://svgjs.dev/svgjs" viewBox="0 0 1920 1080" style="overflow: hidden; height: 85vh;" class="overflow-hidden rounded-md drop-shadow-lg transition duration-300 w-85screen rotate-90"><rect width="1920" height="1080" fill="#371d00"></rect><g clip-path="url(&quot;#SvgjsClipPath1208&quot;)"><g transform="matrix(0.9420248509323405,0.6596129018037029,-0.6596129018037029,0.9420248509323405,410.5749845585128,-587.4481830108366)"><path d="M0,-1080C-1.2305142621339087,-991.1627569176486,-0.15236801364803387,-725.9624885673682,-7.383085572803452,-546.9765415058914C-14.613803131958871,-367.9905944444147,-39.99018601112117,-185.34004716795485,-43.38430535493251,-6.084317631139868C-46.77842469874385,173.17141190567511,-31.963905033090942,339.623952635229,-27.747801635671493,528.5578357149983C-23.531698238252044,717.4917187947676,-30.238963904403853,949.7243514950609,-18.087684970415808,1127.518980847476C-5.93640603642776,1305.3136101998914,42.145257806520824,1423.2454419707358,45.159871968256795,1595.3256118294898C48.174486129992765,1767.405781688244,7.526645328042799,2065.8876019715817,0,2160L 1920 2160 L 1920 -1080 Z" fill="url(&quot;#SvgjsLinearGradient1196&quot;)"></path><path d="M160,-1080C152.25656059144993,-995.1242780730834,106.13008683266553,-720.4804191362094,113.53936354869961,-570.7456684385004C120.9486402647337,-421.01091774079134,188.69401093613138,-328.17501334600524,204.45566029620448,-181.5914958137455C220.2173096562776,-35.00797828148572,209.23012581015004,157.08125384719736,208.1092597091382,308.7554367550582C206.98839360812636,460.4296196629191,195.22247907754496,581.9672144275505,197.7304636901335,728.4536016334197C200.23844830272202,874.9399888392888,222.34523356395388,1020.8349175603464,223.15716738466935,1187.673759990273C223.96910120538482,1354.5126024201998,213.1282611785379,1567.4322828780248,202.60206661442635,1729.4866562129794C192.07587205031479,1891.541029547934,167.10034443573772,2088.2477760354964,160,2160L 1920 2160 L 1920 -1080 Z" fill="url(&quot;#SvgjsLinearGradient1197&quot;)"></path><path d="M320,-1080C310.26336139427843,-979.6812183596356,260.4238455178355,-689.9620707885241,261.58016836567066,-478.0873101578136C262.7364912135058,-266.2125495271031,324.10268872888116,-26.51687635889877,326.93793708701105,191.2485637842634C329.77318544514094,409.0140039274256,270.22469924740915,598.4786650406039,278.59165851445005,828.5053307011594C286.95861778149094,1058.531996361715,370.23830244166476,1349.4927795311232,377.13969268925644,1571.4085577475967C384.0410829368481,1793.32433596407,329.52328211487605,2061.901426291266,320,2160L 1920 2160 L 1920 -1080 Z" fill="url(&quot;#SvgjsLinearGradient1198&quot;)"></path><path d="M480,-1080C482.8569905435315,-971.1892799171914,494.77552196308125,-641.4629487214854,497.1419432611888,-427.1356795031482C499.5083645592964,-212.808410284811,506.0817764416312,-17.548567560954325,494.1985277886454,205.96361531002313C482.3152791356596,429.4757981810006,418.8186367318846,696.222507635302,425.8424513432742,913.9374177227165C432.8662659546638,1131.652327810131,527.3151573475285,1304.5759787882967,536.3414154569828,1512.2530758345106C545.367673566437,1719.9301728807245,489.3902359094971,2052.0421793057517,480,2160L 1920 2160 L 1920 -1080 Z" fill="url(&quot;#SvgjsLinearGradient1199&quot;)"></path><path d="M640,-1080C649.9263590285971,-964.9390681074165,695.9726934230416,-598.763689551319,699.5581541715821,-389.6344086444986C703.1436149201227,-180.50512773767824,668.9695641162751,-25.487884770279493,661.512764491243,174.77568544092222C654.055964866211,375.0392556521239,668.6009434874858,590.0221492377877,654.8173564213898,811.9470126227118C641.0337693552939,1033.8718760076358,581.2808014982326,1281.649367854252,578.8112420946676,1506.3248657504666C576.3416826911026,1731.0003636466813,629.8018736824446,2051.0541442917443,640,2160L 1920 2160 L 1920 -1080 Z" fill="url(&quot;#SvgjsLinearGradient1200&quot;)"></path><path d="M800,-1080C796.7018658453654,-1002.5568801835379,777.2969508072593,-765.8801932398964,780.2111950721927,-615.3412811012275C783.1254393371261,-464.8023689625587,808.5438805162986,-322.2649857313977,817.4854655896004,-176.76652716798708C826.4270506629022,-31.268068604576456,827.3976147739763,102.55580498336693,833.8607055120034,257.6494702792362C840.3237962500305,412.7431355751055,870.525549453396,581.688346404946,856.2640100177631,753.7954646072285C842.0024705821302,925.902582809511,758.5725676951325,1137.9992527684715,748.2914688982058,1290.2921794929316C738.0103701012791,1442.5851062173917,785.9593287192371,1522.6017215361444,794.5774172362028,1667.553024953989C803.1955057531685,1812.5043283718337,799.0962362060338,2077.925504158998,800,2160L 1920 2160 L 1920 -1080 Z" fill="url(&quot;#SvgjsLinearGradient1201&quot;)"></path><path d="M960,-1080C961.4264289544782,-994.6718147277893,965.6393424122554,-745.3700467914689,968.5585737268691,-568.0308883667359C971.4778050414828,-390.6917299420029,986.9219527283383,-210.81026182196828,977.5153878876823,-15.965049451602056C968.1088230470264,178.88016291876417,909.7000444609009,427.0362313608457,912.1191846829331,601.0403858554615C914.5383249049653,775.0445403500773,984.5429607834485,866.4347738298111,992.0302292198754,1028.0598775160927C999.5174976563023,1189.6849812023743,962.3811668381403,1382.1343208924998,957.0427953014944,1570.791007973151C951.7044237648485,1759.4476950538021,959.507132550249,2061.7985013288585,960,2160L 1920 2160 L 1920 -1080 Z" fill="url(&quot;#SvgjsLinearGradient1202&quot;)"></path><path d="M1120,-1080C1129.4993163461445,-992.886213958889,1179.9452659700728,-708.3338328804834,1176.9958980768677,-557.3172837533342C1174.0465301836625,-406.300734626185,1106.7279932195931,-308.64769305361335,1102.3037926407692,-173.90070523710466C1097.8795920619452,-39.15371742059594,1154.7623878119723,101.3544408588146,1150.4506946039237,251.16464314571803C1146.139001395875,400.97484543262146,1082.232802895258,555.9789527193883,1076.433633392478,724.9605084843159C1070.634463889698,893.9420642492436,1115.4344803777726,1104.6314329226138,1115.6556775872434,1265.0539777352838C1115.8768747967142,1425.4765225479537,1077.036762913843,1538.338106982883,1077.7608166493023,1687.4957773603355C1078.4848703847617,1836.6534477377882,1112.960136108217,2081.2492962267224,1120,2160L 1920 2160 L 1920 -1080 Z" fill="url(&quot;#SvgjsLinearGradient1203&quot;)"></path><path d="M1280,-1080C1271.3111390065865,-994.1549707248047,1220.5130865931167,-710.0933160804179,1227.8668340395186,-564.9298243488283C1235.2205814859205,-419.76633261723873,1319.9867229604592,-347.15336408617,1324.122484678412,-209.01904961046233C1328.258246396365,-70.88473513475466,1269.5381389976797,91.74326257471716,1252.6814043472352,263.87606250541774C1235.8246696967908,436.0088624361183,1220.4784401150046,664.4763968619679,1222.9820767757453,823.777749973741C1225.485713436486,983.0791030855141,1256.6089524477763,1068.2366996897865,1267.7032243116798,1219.6841811760562C1278.7974961755833,1371.1316626623259,1287.4982453444468,1575.7433357540347,1289.5477079591667,1732.4626388913587C1291.5971705738866,1889.1819420286827,1281.5912846598612,2088.7437731485597,1280,2160L 1920 2160 L 1920 -1080 Z" fill="url(&quot;#SvgjsLinearGradient1204&quot;)"></path><path d="M1440,-1080C1444.002881659092,-984.7566976048317,1471.30078515742,-678.7209911169106,1464.0172899545528,-508.5401856289906C1456.7337947516855,-338.3593801410707,1399.0856077672317,-236.03557596419193,1396.299028782796,-58.9151670724801C1393.5124497983604,118.20524181923173,1449.9727836125796,356.75018535512254,1447.2978160479392,554.1822677212805C1444.6228484832989,751.6143500874384,1385.7229097360619,938.6048873393568,1380.2492233949542,1125.6773271244679C1374.7755370538466,1312.749766909579,1404.4972352337857,1504.2297942860253,1414.4556980012933,1676.6169064319472C1424.414160768801,1849.0040185778691,1435.742616333549,2079.4361510719914,1440,2160L 1920 2160 L 1920 -1080 Z" fill="url(&quot;#SvgjsLinearGradient1205&quot;)"></path><path d="M1600,-1080C1600.7313393967347,-974.0085962915346,1608.8443666236967,-659.4425774421074,1604.388036380409,-444.0515777492077C1599.9317061371212,-228.66057805630794,1582.5164923716059,-1.1945148659474967,1573.2620185402739,212.3459981573986C1564.0075447089419,425.8865111807447,1536.2102940227571,613.0176134845821,1548.8611933924174,837.191500390869C1561.5120927620776,1061.365387297156,1640.6442803236378,1336.9212363269319,1649.1674147582348,1557.3893195951205C1657.690549192832,1777.857402863309,1608.1945691263725,2059.5648865991866,1600,2160L 1920 2160 L 1920 -1080 Z" fill="url(&quot;#SvgjsLinearGradient1206&quot;)"></path><path d="M1760,-1080C1769.9224121424288,-939.8855277586232,1818.998007406006,-514.7704139115374,1819.5344728545733,-239.3131665517389C1820.0709383031406,36.14408080805953,1762.587703131886,311.9081694118737,1763.2187926914032,572.7434841587906C1763.8498822509205,833.5787989057075,1823.8574756602434,1061.1559692895607,1823.3210102116761,1325.6987219297623C1822.784544763109,1590.2414745699639,1770.553501701946,2020.9497869882937,1760,2160L 1920 2160 L 1920 -1080 Z" fill="url(&quot;#SvgjsLinearGradient1207&quot;)"></path></g></g><defs><linearGradient x1="0.1" y1="0" x2="0" y2="1" id="SvgjsLinearGradient1196"><stop stop-color="#371d00" offset="0"></stop><stop stop-color="#371400" offset="0"></stop></linearGradient><linearGradient x1="0.1" y1="0" x2="0" y2="1" id="SvgjsLinearGradient1197"><stop stop-color="#311a00" offset="0"></stop><stop stop-color="#311200" offset="0.08333333333333333"></stop></linearGradient><linearGradient x1="0.1" y1="0" x2="0" y2="1" id="SvgjsLinearGradient1198"><stop stop-color="#2c1700" offset="0"></stop><stop stop-color="#2c1000" offset="0.16666666666666666"></stop></linearGradient><linearGradient x1="0.1" y1="0" x2="0" y2="1" id="SvgjsLinearGradient1199"><stop stop-color="#261400" offset="0"></stop><stop stop-color="#260e00" offset="0.25"></stop></linearGradient><linearGradient x1="0.1" y1="0" x2="0" y2="1" id="SvgjsLinearGradient1200"><stop stop-color="#211100" offset="0"></stop><stop stop-color="#210b00" offset="0.3333333333333333"></stop></linearGradient><linearGradient x1="0.1" y1="0" x2="0" y2="1" id="SvgjsLinearGradient1201"><stop stop-color="#1b0e00" offset="0"></stop><stop stop-color="#1b0900" offset="0.4166666666666667"></stop></linearGradient><linearGradient x1="0.1" y1="0" x2="0" y2="1" id="SvgjsLinearGradient1202"><stop stop-color="#160b00" offset="0"></stop><stop stop-color="#160700" offset="0.5"></stop></linearGradient><linearGradient x1="0.1" y1="0" x2="0" y2="1" id="SvgjsLinearGradient1203"><stop stop-color="#100800" offset="0"></stop><stop stop-color="#100500" offset="0.5833333333333334"></stop></linearGradient><linearGradient x1="0.1" y1="0" x2="0" y2="1" id="SvgjsLinearGradient1204"><stop stop-color="#0a0500" offset="0"></stop><stop stop-color="#0a0300" offset="0.6666666666666666"></stop></linearGradient><linearGradient x1="0.1" y1="0" x2="0" y2="1" id="SvgjsLinearGradient1205"><stop stop-color="#050300" offset="0"></stop><stop stop-color="#050200" offset="0.75"></stop></linearGradient><linearGradient x1="0.1" y1="0" x2="0" y2="1" id="SvgjsLinearGradient1206"><stop stop-color="#000000" offset="0"></stop><stop stop-color="#000000" offset="0.8333333333333334"></stop></linearGradient><linearGradient x1="0.1" y1="0" x2="0" y2="1" id="SvgjsLinearGradient1207"><stop stop-color="#000000" offset="0"></stop><stop stop-color="#000000" offset="0.9166666666666666"></stop></linearGradient><clipPath id="SvgjsClipPath1208"><rect width="1920" height="1080"></rect></clipPath></defs></svg>
